<?xml version="1.0" encoding="UTF-8"?>
<svg version="1.1" xmlns="http://www.w3.org/2000/svg" width="512" height="512">
<path d="M0 0 C5.54937733 3.29278406 8.77704122 7.8546183 10.94739974 13.89753914 C12.22572263 19.04628501 11.96062554 24.32558873 11.92326355 29.59936523 C11.92457323 30.93858206 11.92720265 32.27779813 11.93103105 33.61701012 C11.93771603 37.2817431 11.92577098 40.94621137 11.91069686 44.61091065 C11.89771192 48.56854357 11.9021277 52.52616219 11.90440369 56.48381042 C11.90597487 63.33561728 11.89658189 70.18733827 11.87969017 77.03912354 C11.8552837 86.94557645 11.84749321 96.85198795 11.8437262 106.75846767 C11.8371643 122.83200327 11.81721023 138.90549313 11.78881836 154.97900391 C11.76127102 170.59065523 11.74004074 186.20229412 11.72729492 201.81396484 C11.72650675 202.77666263 11.72571858 203.73936041 11.72490653 204.73123085 C11.72099134 209.56092072 11.71720024 214.39061067 11.71347082 219.22030067 C11.68238306 259.27189914 11.62955438 299.32344655 11.5625 339.375 C12.242161 339.37348112 12.92182199 339.37196224 13.62207878 339.37039733 C53.91360369 339.28086481 94.20511575 339.21224355 134.49672001 339.17073868 C139.33570413 339.16573592 144.17468805 339.16055862 149.01367188 339.15527344 C149.97701734 339.1542242 150.94036281 339.15317495 151.93290056 339.15209392 C167.52667134 339.13469362 183.12038307 339.10315799 198.71411882 339.06638882 C214.71739904 339.02896896 230.72064836 339.00676193 246.72397053 338.99864602 C256.59710736 338.99316042 266.47007728 338.97584108 276.34316273 338.94333413 C283.11556992 338.92217337 289.88789095 338.9158035 296.66032879 338.92099449 C300.56639606 338.92355384 304.47217187 338.91965931 308.37818718 338.8981781 C311.95881631 338.87863072 315.53895956 338.8777824 319.11961164 338.89140442 C321.01902776 338.89387951 322.91843864 338.87670095 324.81777084 338.85867476 C332.68345084 338.91338325 340.42058045 339.63778488 346.50209033 345.12507415 C351.91195327 350.9752959 353.02902844 356.53099085 352.875 364.3671875 C352.25418548 370.34252727 349.95491519 373.95093901 345.8125 378.1875 C337.55051772 383.74844961 330.09522657 383.80665229 320.40490723 383.75595093 C318.9641454 383.75941071 317.52338622 383.76417743 316.08263254 383.77013266 C312.13693046 383.78262833 308.19144674 383.77647886 304.24574399 383.76717401 C299.98528154 383.76037796 295.72485627 383.7708675 291.46440125 383.77911377 C283.12345878 383.79244737 274.78259733 383.78957502 266.4416517 383.78087585 C259.66225099 383.77409825 252.88287298 383.77318291 246.10346985 383.7764473 C244.65565879 383.77713684 244.65565879 383.77713684 243.17859903 383.77784032 C241.21774415 383.77879951 239.25688927 383.77977215 237.2960344 383.7807581 C218.9129446 383.7893109 200.5298997 383.77947958 182.14681727 383.763357 C166.37633877 383.74995392 150.60592652 383.75228204 134.83544922 383.76611328 C116.51773726 383.78217103 98.20006464 383.78848693 79.88234663 383.77927649 C77.92874114 383.77832085 75.97513565 383.77737774 74.02153015 383.7764473 C72.57974682 383.77575306 72.57974682 383.77575306 71.10883656 383.77504479 C64.33827991 383.77245549 57.56774822 383.77682462 50.79719543 383.78388596 C42.54514793 383.7923033 34.29318602 383.79001586 26.0411483 383.77404372 C21.8315498 383.76616419 17.62209398 383.763064 13.41249657 383.77299118 C9.5572496 383.78194516 5.70227727 383.77699376 1.84705514 383.76105852 C0.45416255 383.75771369 -0.93875335 383.75939812 -2.33163089 383.76668589 C-11.07243639 383.80890297 -17.67486891 383.40576524 -25.1875 378.625 C-30.74870961 373.06379039 -32.55862892 367.16988992 -32.57172108 359.46027946 C-32.57840784 357.63402607 -32.57840784 357.63402607 -32.58522969 355.77087867 C-32.5851404 354.41788029 -32.58495055 353.0648819 -32.58467102 351.71188354 C-32.58797069 350.27600191 -32.59169648 348.84012121 -32.5958125 347.40424168 C-32.60582889 343.45343455 -32.60954871 339.5026426 -32.61220181 335.55182457 C-32.61610593 331.29262522 -32.62568419 327.03343789 -32.63441467 322.77424622 C-32.65417594 312.48582685 -32.66424482 302.19740651 -32.67314246 291.90897292 C-32.67752587 287.06376658 -32.68289254 282.21856134 -32.68813133 277.37335587 C-32.70514319 261.26648879 -32.71963738 245.1596224 -32.72688007 229.05274773 C-32.72878996 224.87305577 -32.7307103 220.69336381 -32.73266602 216.51367188 C-32.73314976 215.47483243 -32.7336335 214.43599299 -32.7341319 213.36567356 C-32.74243225 196.53704784 -32.76776947 179.70849321 -32.80024669 162.87989853 C-32.83331946 145.60183258 -32.85132903 128.32380274 -32.85452431 111.04570496 C-32.85668919 101.34489734 -32.86543469 91.64419337 -32.89098549 81.9434166 C-32.91269543 73.68181116 -32.92074144 65.42033457 -32.91101871 57.15870385 C-32.90647488 52.94478198 -32.90836497 48.73112592 -32.92778015 44.51724052 C-32.94541885 40.65550948 -32.94440865 36.79423802 -32.92888286 32.93250205 C-32.92650784 31.53944596 -32.93082491 30.146358 -32.94271151 28.7533506 C-33.01231793 20.05346948 -32.82412322 11.22732426 -26.68745214 4.43916023 C-19.43926781 -2.27944316 -9.15929396 -4.17914553 0 0 Z " fill="#000000" transform="translate(138.4375,22.625)"/>
<path d="M0 0 C0.81448364 -0.00297112 1.62896729 -0.00594224 2.46813226 -0.0090034 C5.20095353 -0.01768413 7.93373097 -0.01919812 10.66656494 -0.02069092 C12.62459405 -0.02531954 14.58262226 -0.03034426 16.54064941 -0.03573608 C21.86309367 -0.04885801 27.18552531 -0.05530467 32.50798321 -0.05974674 C35.83347175 -0.06267787 39.15895685 -0.06678276 42.48444366 -0.07125092 C52.88979061 -0.08492544 63.29512968 -0.09459226 73.70048499 -0.09845281 C85.71064215 -0.10293327 97.72068548 -0.12048086 109.73080802 -0.1494534 C119.01501567 -0.1710724 128.2991913 -0.18115721 137.58342385 -0.18249393 C143.12808625 -0.18354181 148.67264164 -0.18944627 154.21727753 -0.20731354 C159.43426352 -0.22379786 164.65106211 -0.2259479 169.86806488 -0.21717453 C171.78043113 -0.21640435 173.69280747 -0.22074439 175.60514832 -0.23063278 C178.22103727 -0.24336337 180.8362636 -0.23746953 183.45214844 -0.22705078 C184.20430689 -0.23510719 184.95646533 -0.24316359 185.73141646 -0.25146413 C193.05356943 -0.18351725 199.6809443 1.84134469 204.9800415 7.14044189 C209.36103786 13.47512582 210.1290741 18.6146959 210.1204834 26.16040039 C210.12345452 26.97488404 210.12642564 27.78936768 210.1294868 28.62853265 C210.13816753 31.36135392 210.13968152 34.09413136 210.14117432 36.82696533 C210.14580294 38.78499444 210.15082766 40.74302265 210.15621948 42.7010498 C210.1693414 48.02349406 210.17578807 53.3459257 210.18023014 58.6683836 C210.18316126 61.99387214 210.18726616 65.31935724 210.19173431 68.64484406 C210.20540884 79.050191 210.21507566 89.45553007 210.2189362 99.86088538 C210.22341667 111.87104254 210.24096425 123.88108587 210.2699368 135.89120841 C210.2915558 145.17541606 210.30164061 154.45959169 210.30297732 163.74382424 C210.30402521 169.28848664 210.30992966 174.83304203 210.32779694 180.37767792 C210.34428126 185.59466391 210.3464313 190.81146251 210.33765793 196.02846527 C210.33688775 197.94083152 210.34122779 199.85320786 210.35111618 201.76554871 C210.36384677 204.38143766 210.35795292 206.99666399 210.34753418 209.61254883 C210.35559058 210.36470728 210.36364699 211.11686573 210.37194753 211.89181685 C210.31192992 218.35948848 208.92547147 223.82695761 204.6675415 228.89044189 C198.46576405 234.08262767 194.25048319 236.4801319 186.13238525 236.35919189 C180.27900944 235.76429344 175.13073342 233.29113382 170.9800415 229.14044189 C166.78206218 223.0703907 165.85454477 218.32990556 165.85978699 211.05371094 C165.85850535 209.98277722 165.85850535 209.98277722 165.85719782 208.89020848 C165.85555078 206.49800815 165.86105171 204.10587795 165.86651611 201.71368408 C165.86679818 199.99883018 165.86663987 198.28397615 165.86607361 196.56912231 C165.86578639 191.91247234 165.871671 187.25584806 165.87864757 182.59920406 C165.88489359 177.73317024 165.88548589 172.86713585 165.88667297 168.00109863 C165.8897826 158.78599146 165.89799103 149.57089614 165.90802246 140.35579419 C165.91919503 129.86497157 165.92469694 119.37414838 165.9297179 108.88332129 C165.94017394 87.30235487 165.95776626 65.72139913 165.9800415 44.14044189 C164.64597889 44.14458996 164.64597889 44.14458996 163.28496552 44.14882183 C141.63472801 44.21510312 119.98450801 44.26473295 98.33419037 44.29587841 C87.86421564 44.31134083 77.39430867 44.33241846 66.92437744 44.36676025 C57.79774572 44.39668168 48.67116308 44.41602144 39.54448366 44.42270738 C34.71291813 44.42661497 29.88149302 44.43578545 25.04997253 44.45763206 C20.49951425 44.47804051 15.94925383 44.48426688 11.39875412 44.47976494 C9.73149413 44.48058819 8.06422731 44.48652785 6.39700699 44.49805832 C-2.94470512 44.5594798 -10.61746714 44.57839094 -18.7699585 39.39044189 C-23.67704073 34.48335966 -25.81371238 29.23413358 -26.2699585 22.39044189 C-26.17080399 15.73469555 -23.73840718 9.85889058 -19.0199585 5.14044189 C-12.68527457 0.75944554 -7.54570449 -0.0085907 0 0 Z " fill="#000000" transform="translate(196.01995849609375,105.85955810546875)"/>
<path d="M0 0 C7.94430109 7.94430109 7.48403818 16.78788524 7.5625 27.375 C7.59150391 28.65632813 7.62050781 29.93765625 7.65039062 31.2578125 C7.70592224 39.59609854 7.35520757 47.71486483 1.49926758 54.18408203 C-4.34033235 59.60529985 -9.90996291 60.71645036 -17.7421875 60.5625 C-23.71752727 59.94168548 -27.32593901 57.64241519 -31.5625 53.5 C-37.19691925 45.12886283 -37.21434457 37.60768476 -37.125 27.75 C-37.13660156 26.46996094 -37.14820313 25.18992187 -37.16015625 23.87109375 C-37.13187913 14.75643573 -36.51764949 7.01764949 -29.75 0.25 C-19.91568315 -6.55130324 -9.93984913 -6.32535854 0 0 Z " fill="#000000" transform="translate(398.75,430.75)"/>
<path d="M0 0 C1.28003906 -0.01160156 2.56007812 -0.02320312 3.87890625 -0.03515625 C12.99356427 -0.00687913 20.73235051 0.60735051 27.5 7.375 C31.74034841 13.50631459 33.24199672 18.94154192 32.5 26.375 C30.83419903 33.49728287 27.3082004 37.31183236 21.4375 41.625 C14.93089713 45.50127405 7.75487581 44.63280724 0.375 44.6875 C-0.90632813 44.71650391 -2.18765625 44.74550781 -3.5078125 44.77539062 C-11.84609854 44.83092224 -19.96486483 44.48020757 -26.43408203 38.62426758 C-31.85529985 32.78466765 -32.96645036 27.21503709 -32.8125 19.3828125 C-32.19168548 13.40747273 -29.89241519 9.79906099 -25.75 5.5625 C-17.37886283 -0.07191925 -9.85768476 -0.08934457 0 0 Z " fill="#000000" transform="translate(53.5,105.625)"/>
</svg>
