<?xml version="1.0" encoding="UTF-8"?>
<svg version="1.1" xmlns="http://www.w3.org/2000/svg" width="512" height="512">
<path d="M0 0 C1.79806091 0.00273422 1.79806091 0.00273422 3.63244629 0.00552368 C20.7914093 0.04952323 37.6149626 0.38903554 54.5625 3.3125 C56.1417627 3.56990967 56.1417627 3.56990967 57.75292969 3.83251953 C121.39836756 14.36479474 189.74544584 42.86607001 229.11376953 96.42285156 C251.55324828 127.85617895 262.36513276 163.84308152 256.79321289 202.57299805 C251.9074957 229.89881097 238.00267674 254.87216413 219.5625 275.3125 C218.63244709 276.36426032 217.70275925 277.41634358 216.7734375 278.46875 C200.04142692 297.24519577 179.46771439 311.24378166 157.5625 323.3125 C156.46292969 323.94671875 155.36335938 324.5809375 154.23046875 325.234375 C135.86668755 335.53952719 115.70829575 342.40124813 95.5625 348.3125 C94.79905273 348.54275879 94.03560547 348.77301758 93.24902344 349.01025391 C82.82340354 352.12787565 72.28846922 354.18778267 61.5625 356 C60.36496094 356.20254395 59.16742188 356.40508789 57.93359375 356.61376953 C54.14898538 357.22565538 50.36043146 357.7909796 46.5625 358.3125 C45.87368744 358.40752808 45.18487488 358.50255615 44.47518921 358.60046387 C30.12939372 360.50812895 15.83085857 360.71017566 1.375 360.6875 C0.18850861 360.68762085 -0.99798279 360.6877417 -2.22042847 360.68786621 C-21.29640976 360.66025917 -39.63030609 359.59837464 -58.4375 356.3125 C-60.3410205 356.0083292 -62.24465935 355.70489772 -64.1484375 355.40234375 C-105.82701934 348.42660899 -147.06971335 331.97026885 -181.4375 307.3125 C-182.12779297 306.81830566 -182.81808594 306.32411133 -183.52929688 305.81494141 C-218.30846412 280.58988951 -245.50767446 245.53340129 -253.578125 202.67578125 C-254.71560767 195.40711656 -254.83500073 188.15654194 -254.8125 180.8125 C-254.81162384 180.11073639 -254.81074768 179.40897278 -254.80984497 178.6859436 C-254.65495233 140.93447999 -238.25802894 106.64082777 -211.96728516 79.87744141 C-210.40979442 78.28415772 -208.8820551 76.66583932 -207.35546875 75.04296875 C-199.44399675 66.74814852 -190.80868682 59.88840879 -181.4375 53.3125 C-180.81617188 52.87309082 -180.19484375 52.43368164 -179.5546875 51.98095703 C-139.56750024 23.89421193 -92.5323228 8.81873297 -44.4375 2.3125 C-42.5335144 2.04215942 -42.5335144 2.04215942 -40.59106445 1.76635742 C-27.08675007 -0.02503122 -13.6037033 -0.04276789 0 0 Z " fill="#000000" transform="translate(254.4375,75.6875)"/>
</svg>
