<?xml version="1.0" encoding="UTF-8"?>
<svg version="1.1" xmlns="http://www.w3.org/2000/svg" width="512" height="512">
<path d="M0 0 C0.95981569 0.01307094 1.91963137 0.02614187 2.90853238 0.0396089 C3.93550961 0.02219001 4.96248683 0.00477112 6.02058458 -0.01317561 C9.46732496 -0.06153851 12.91151108 -0.05258084 16.35854459 -0.04365832 C18.82743767 -0.06595528 21.29630284 -0.09155366 23.76513028 -0.12021166 C29.77892051 -0.17977881 35.79170378 -0.20107978 41.8056986 -0.20208567 C46.69546527 -0.20315484 51.58502246 -0.21724238 56.47473264 -0.24051386 C70.34477349 -0.30520859 84.2143177 -0.33750004 98.08450899 -0.32667308 C99.20580602 -0.32579952 99.20580602 -0.32579952 100.34975553 -0.32490832 C101.47242546 -0.32402428 101.47242546 -0.32402428 102.61777559 -0.32312239 C114.74334313 -0.31551806 126.86711164 -0.3841536 138.9921926 -0.48779409 C151.44865862 -0.59342921 163.90425316 -0.64304424 176.36117792 -0.63410819 C183.35245702 -0.63020721 190.34192927 -0.64907469 197.33281064 -0.72789103 C203.90991008 -0.80151852 210.48377823 -0.79709503 217.06126142 -0.74038035 C219.47314484 -0.73173957 221.88527743 -0.74865496 224.29676557 -0.79316622 C242.04561382 -1.09907216 242.04561382 -1.09907216 246.62643266 2.56126565 C249.6276388 6.07065934 251.44410356 9.92547208 253.05208182 14.22276288 C254.20283195 17.11147861 255.81647209 19.69323319 257.4337399 22.34086317 C258.59913682 24.36483499 259.76317024 26.38959243 260.9259274 28.41508192 C262.23057897 30.68202968 263.53526753 32.94895616 264.8399899 35.21586317 C265.49644498 36.35748914 266.15290006 37.49911512 266.82924771 38.67533582 C269.98117973 44.15413988 273.14133537 49.62819304 276.3009274 55.10258192 C277.55096971 57.26922418 278.80096964 59.43589088 280.0509274 61.60258192 C280.6696774 62.67508192 281.2884274 63.74758192 281.9259274 64.85258192 C332.5509274 152.60258192 332.5509274 152.60258192 334.42690396 155.8542909 C335.67362996 158.0152718 336.92037467 160.1762419 338.16713834 162.33720106 C341.34238623 167.84077043 344.51728235 173.34454224 347.6915524 178.84867567 C348.33221646 179.95888075 348.97288053 181.06908582 349.63295865 182.21293348 C350.89813036 184.40765853 352.16119875 186.60359759 353.42202115 188.80082411 C356.30376781 193.81623074 359.21244896 198.80765112 362.2228024 203.74711317 C363.00639127 205.04854261 363.00639127 205.04854261 363.80581021 206.37626356 C364.77035583 207.97381192 365.74799098 209.56356456 366.74135709 211.1433534 C367.16320279 211.84661756 367.58504849 212.54988172 368.0196774 213.27445692 C368.5755856 214.17309461 368.5755856 214.17309461 369.14272428 215.08988661 C370.36637724 218.83165036 369.28253779 222.07609135 367.65615201 225.54252332 C367.17670133 226.33835829 366.69725064 227.13419325 366.20327115 227.95414442 C365.65735318 228.87324598 365.11143521 229.79234754 364.54897428 230.73930067 C363.95149381 231.72543348 363.35401334 232.71156629 362.7384274 233.72758192 C361.45451139 235.88562521 360.17201583 238.04451408 358.89077115 240.20414442 C358.21900846 241.33239637 357.54724576 242.46064832 356.85512662 243.62308973 C353.77366792 248.82251444 350.79240467 254.0791541 347.80632901 259.33372205 C341.96879135 269.6040319 336.05939407 279.83013199 330.0899899 290.02445692 C325.60926594 297.68831962 321.19585988 305.38937027 316.8009274 313.10258192 C311.28828905 322.77739411 305.71668173 332.41540329 300.0899899 342.02445692 C295.60926594 349.68831962 291.19585988 357.38937027 286.8009274 365.10258192 C281.29576062 374.76428133 275.73397834 384.39058432 270.11196256 393.98490614 C266.88049897 399.50913053 263.67969803 405.04951673 260.5118649 410.61039442 C259.96915952 411.56277998 259.96915952 411.56277998 259.41549039 412.53440565 C257.64984286 415.63458522 255.88740371 418.73653985 254.1290524 421.84086317 C253.49225553 422.96105848 252.85545865 424.08125379 252.1993649 425.23539442 C251.63910611 426.22426649 251.07884732 427.21313856 250.50161099 428.23197645 C249.94038541 429.17927625 249.37915982 430.12657606 248.8009274 431.10258192 C248.3118399 432.13482484 247.82275241 433.16706775 247.31884408 434.23059076 C244.58054699 437.35395266 244.26802278 437.53794246 240.3982985 437.88276857 C238.53721084 437.92758535 236.67515142 437.93905565 234.81357694 437.92504591 C233.78745413 437.94075594 232.76133133 437.95646598 231.7041139 437.97265208 C228.25466948 438.01777347 224.80655523 438.01976982 221.3568356 438.02177137 C218.88809817 438.04462837 216.41938216 438.06990953 213.95069242 438.09743971 C207.23556569 438.16338121 200.52097612 438.18975069 193.80560446 438.20491904 C189.61102639 438.21469263 185.41653081 438.23426178 181.22199941 438.25592321 C169.60421049 438.31462373 157.98649826 438.36383354 146.36855149 438.37255281 C145.25340125 438.37339688 145.25340125 438.37339688 144.11572273 438.37425799 C142.60864803 438.37535673 141.10157332 438.37644783 139.59449861 438.37753133 C138.47235347 438.37835398 138.47235347 438.37835398 137.32753873 438.37919325 C136.20402054 438.38000572 136.20402054 438.38000572 135.05780502 438.3808346 C122.92575151 438.39145566 110.79529686 438.47248987 98.66379771 438.58468691 C86.20289531 438.69900606 73.74278558 438.75702573 61.28134722 438.75793135 C54.28663534 438.75968386 47.29382975 438.78506556 40.29960942 438.87192434 C33.71851185 438.95327749 27.14052609 438.95713056 20.55888677 438.90895742 C18.1453567 438.9035077 15.73161099 438.92364723 13.31854749 438.97141355 C-4.44361274 439.30153646 -4.44361274 439.30153646 -9.02524471 435.6452319 C-12.02780852 432.13619424 -13.84335022 428.2810609 -15.45048177 423.98291427 C-16.60070458 421.09375095 -18.21441569 418.51204384 -19.8318851 415.86430067 C-20.99730076 413.84033964 -22.16133337 411.8155817 -23.3240726 409.79008192 C-24.63000529 407.52051793 -25.93599653 405.25098763 -27.24204135 402.98148817 C-27.89865756 401.83953993 -28.55527377 400.69759168 -29.23178744 399.52103895 C-31.1303114 396.22206495 -33.03289111 392.92547423 -34.93735385 389.62992567 C-41.75105401 377.83840152 -48.53038297 366.02814625 -55.27643466 354.1978578 C-60.43242705 345.15928764 -65.65227933 336.15981054 -70.91025424 327.18021864 C-75.73780096 318.92334549 -80.48455931 310.62164161 -85.21958041 302.31156629 C-90.39012488 293.23956593 -95.62429046 284.20668137 -100.90122104 275.19608778 C-106.16332175 266.19658078 -111.34024854 257.14929958 -116.48203158 248.08060926 C-119.40697299 242.92971048 -122.35219863 237.80094271 -125.46860385 232.76273817 C-125.9471683 231.98277479 -126.42573276 231.20281141 -126.91879916 230.39921278 C-127.77979708 229.00674433 -128.65434848 227.62251291 -129.54575229 226.24931043 C-131.31807368 223.37447602 -132.24155765 221.61594655 -131.95908237 218.20267957 C-131.19545366 215.08782017 -130.21138085 212.91875533 -128.5662601 210.18070692 C-127.73976962 208.78682752 -127.73976962 208.78682752 -126.89658237 207.36478895 C-126.29515414 206.37076063 -125.69372592 205.37673231 -125.0740726 204.35258192 C-123.78813991 202.1889807 -122.5030105 200.0249019 -121.21860385 197.86039442 C-120.5529642 196.74438856 -119.88732455 195.6283827 -119.20151401 194.47855848 C-116.00535121 189.09005091 -112.88397046 183.65905597 -109.7615726 178.22758192 C-108.50261164 176.04259756 -107.24349622 173.8577022 -105.98422885 171.67289442 C-105.35919467 170.58782606 -104.73416049 169.5027577 -104.09018588 168.38480848 C-100.96227109 162.95598246 -97.83044096 157.52941635 -94.6990726 152.10258192 C-94.07967807 151.02879286 -93.46028354 149.95500379 -92.82211947 148.84867567 C-89.71128927 143.45570676 -86.59912111 138.06351828 -83.48422885 132.67289442 C-76.66404623 120.86628708 -69.87584 109.04231192 -63.12171054 97.1978578 C-57.96571815 88.15928764 -52.74586586 79.15981054 -47.48789096 70.18021864 C-43.00717525 62.51655356 -38.59427133 54.81543659 -34.1990726 47.10258192 C-29.00853921 37.9966693 -23.78868549 28.90871589 -18.5115726 19.85258192 C-17.94760776 18.88320692 -17.38364291 17.91383192 -16.80258822 16.91508192 C-16.26956088 16.00242567 -15.73653354 15.08976942 -15.18735385 14.14945692 C-14.72885043 13.36409559 -14.27034701 12.57873426 -13.79794955 11.76957411 C-13.27032016 10.88946668 -12.74269076 10.00935926 -12.1990726 9.10258192 C-11.9038728 8.45146608 -11.60867301 7.80035023 -11.30452776 7.12950361 C-8.47747799 1.52845157 -6.22238807 0.17758903 0 0 Z " fill="#000000" transform="translate(137.199072599411,36.89741808176041)"/>
</svg>
