<?xml version="1.0" encoding="UTF-8"?>
<svg version="1.1" xmlns="http://www.w3.org/2000/svg" width="512" height="512">
<path d="M0 0 C1.28910408 -0.00997172 1.28910408 -0.00997172 2.60425067 -0.02014488 C5.48910818 -0.03985758 8.37381062 -0.04521903 11.25872803 -0.05052185 C13.32513333 -0.06141547 15.39153466 -0.07308702 17.45793152 -0.08547974 C23.07581288 -0.11600653 28.69365326 -0.13300821 34.31160069 -0.14569592 C37.82135454 -0.15377789 41.33109659 -0.16395834 44.8408432 -0.17471123 C55.82176879 -0.20743545 66.80266574 -0.23133433 77.78363347 -0.24352509 C90.46015415 -0.25778148 103.13611823 -0.30165852 115.81245446 -0.37102658 C125.6104638 -0.42279537 135.40831478 -0.44769733 145.20645881 -0.45234722 C151.05871526 -0.4557466 156.91040898 -0.47062486 162.76251984 -0.51362801 C168.26864696 -0.55337989 173.77381853 -0.55978351 179.28004646 -0.54072762 C181.29886599 -0.53946145 183.31773434 -0.55013615 185.33641624 -0.57374191 C202.49158956 -0.76286969 202.49158956 -0.76286969 206.96780396 2.99034119 C208.19282565 4.39990541 209.38715773 5.83631574 210.56243896 7.28761292 C212.04814399 8.79959765 213.57032766 10.26923614 215.0951252 11.74175197 C216.88767413 13.47716829 218.65624633 15.23421206 220.42016602 16.998703 C221.36143719 17.94022909 221.36143719 17.94022909 222.32172394 18.90077591 C222.97140892 19.55074413 223.6210939 20.20071236 224.29046631 20.87037659 C225.66749608 22.24441031 227.04472939 23.61824007 228.42214966 24.99188232 C232.14312803 28.70406804 235.86089595 32.41945268 239.57780027 36.13571715 C241.90099443 38.45819883 244.22489987 40.77996633 246.54906082 43.10148048 C254.65874823 51.20193456 262.76586663 59.30494943 270.87054443 67.41041565 C278.42552673 74.96600021 285.98608542 82.51597284 293.54924428 90.06337184 C300.04806397 96.54913132 306.54303811 103.03872469 313.03501093 109.53133756 C316.91038032 113.40696211 320.78729263 117.28101205 324.66807175 121.15122032 C328.31192857 124.78542026 331.9509858 128.42435761 335.58636856 132.06703377 C336.92220734 133.40392095 338.25976251 134.73909557 339.59913635 136.0724411 C341.42434969 137.88996876 343.24331795 139.71352478 345.06082153 141.53875732 C345.59427165 142.06706388 346.12772177 142.59537044 346.67733705 143.13968629 C352.11269814 148.62640321 352.86001149 152.10621221 352.85005188 159.72517395 C352.85669969 160.58457667 352.8633475 161.44397939 352.87019676 162.32942462 C352.88990946 165.21428213 352.89527091 168.09898457 352.90057373 170.98390198 C352.91146735 173.05030728 352.9231389 175.11670861 352.93553162 177.18310547 C352.96605841 182.80098684 352.98306009 188.41882721 352.9957478 194.03677464 C353.00382976 197.54652849 353.01401022 201.05627054 353.02476311 204.56601715 C353.05748733 215.54694274 353.08138621 226.52783969 353.09357697 237.50880742 C353.10783336 250.1853281 353.1517104 262.86129218 353.22107846 275.53762841 C353.27284725 285.33563775 353.29774921 295.13348873 353.3023991 304.93163276 C353.30579848 310.78388921 353.32067674 316.63558293 353.36367989 322.48769379 C353.40343177 327.99382091 353.40983539 333.49899248 353.3907795 339.00522041 C353.38951333 341.02403994 353.40018803 343.04290829 353.42379379 345.06159019 C353.61292157 362.21676351 353.61292157 362.21676351 349.85971069 366.69297791 C348.45014647 367.9179996 347.01373614 369.11233168 345.56243896 370.28761292 C344.05045423 371.77331794 342.58081574 373.29550161 341.10829991 374.82029915 C339.37288359 376.61284808 337.61583982 378.38142028 335.85134888 380.14533997 C335.22366482 380.77285408 334.59598076 381.40036819 333.94927597 382.04689789 C333.29930775 382.69658287 332.64933952 383.34626785 331.97967529 384.01564026 C330.60564157 385.39267003 329.23181181 386.76990334 327.85816956 388.14732361 C324.14598384 391.86830198 320.4305992 395.5860699 316.71433473 399.30297422 C314.39185305 401.62616838 312.07008555 403.95007382 309.7485714 406.27423477 C301.64811732 414.38392218 293.54510245 422.49104058 285.43963623 430.59571838 C277.88405167 438.15070068 270.33407904 445.71125937 262.78668004 453.27441823 C256.30092056 459.77323792 249.81132719 466.26821206 243.31871432 472.76018488 C239.44308977 476.63555427 235.56903983 480.51246658 231.69883156 484.3932457 C228.06463162 488.03710252 224.42569427 491.67615975 220.78301811 495.31154251 C219.44613093 496.64738129 218.11095631 497.98493646 216.77761078 499.3243103 C214.96008312 501.14952364 213.1365271 502.9684919 211.31129456 504.78599548 C210.782988 505.3194456 210.25468144 505.85289572 209.71036559 506.402511 C204.22364866 511.83787209 200.74383967 512.58518544 193.12487793 512.57522583 C191.83577385 512.58519755 191.83577385 512.58519755 190.52062726 512.59537071 C187.63576975 512.61508341 184.75106731 512.62044486 181.8661499 512.62574768 C179.7997446 512.6366413 177.73334327 512.64831285 175.66694641 512.66070557 C170.04906504 512.69123236 164.43122467 512.70823404 158.81327724 512.72092175 C155.30352339 512.72900372 151.79378134 512.73918417 148.28403473 512.74993706 C137.30310914 512.78266128 126.32221219 512.80656016 115.34124446 512.81875092 C102.66472378 512.83300731 89.9887597 512.87688435 77.31242347 512.94625241 C67.51441413 512.9980212 57.71656315 513.02292316 47.91841912 513.02757305 C42.06616267 513.03097243 36.21446895 513.04585069 30.36235809 513.08885384 C24.85623097 513.12860572 19.3510594 513.13500934 13.84483147 513.11595345 C11.82601194 513.11468728 9.80714359 513.12536198 7.78846169 513.14896774 C-9.36671163 513.33809552 -9.36671163 513.33809552 -13.84292603 509.58488464 C-15.06794772 508.17532042 -16.2622798 506.73891009 -17.43756104 505.28761292 C-18.92326606 503.77562818 -20.44544973 502.30598969 -21.97024727 500.83347386 C-23.7627962 499.09805754 -25.5313684 497.34101377 -27.29528809 495.57652283 C-27.9228022 494.94883877 -28.55031631 494.32115471 -29.19684601 493.67444992 C-29.84653099 493.0244817 -30.49621597 492.37451347 -31.16558838 491.70484924 C-32.54261815 490.33081552 -33.91985146 488.95698576 -35.29727173 487.58334351 C-39.0182501 483.87115779 -42.73601802 480.15577315 -46.45292234 476.43950868 C-48.7761165 474.117027 -51.10002194 471.7952595 -53.42418289 469.47374535 C-61.5338703 461.37329128 -69.6409887 453.2702764 -77.7456665 445.16481018 C-85.3006488 437.60922562 -92.86120749 430.05925299 -100.42436635 422.51185399 C-106.92318604 416.02609451 -113.41816018 409.53650114 -119.910133 403.04388827 C-123.78550239 399.16826372 -127.6624147 395.29421378 -131.54319382 391.42400551 C-135.18705064 387.78980557 -138.82610787 384.15086822 -142.46149063 380.50819206 C-143.79732941 379.17130488 -145.13488458 377.83613026 -146.47425842 376.50278473 C-148.29947176 374.68525707 -150.11844002 372.86170105 -151.9359436 371.03646851 C-152.46939372 370.50816195 -153.00284384 369.97985539 -153.55245912 369.43553954 C-158.98782021 363.94882262 -159.73513356 360.46901362 -159.72517395 352.85005188 C-159.73182176 351.99064916 -159.73846957 351.13124644 -159.74531883 350.24580121 C-159.76503153 347.3609437 -159.77039298 344.47624126 -159.7756958 341.59132385 C-159.78658942 339.52491855 -159.79826097 337.45851722 -159.81065369 335.39212036 C-159.84118049 329.774239 -159.85818216 324.15639862 -159.87086987 318.53845119 C-159.87895184 315.02869734 -159.88913229 311.51895529 -159.89988518 308.00920868 C-159.9326094 297.02828309 -159.95650828 286.04738614 -159.96869904 275.06641841 C-159.98295543 262.38989773 -160.02683247 249.71393365 -160.09620053 237.03759742 C-160.14796932 227.23958808 -160.17287128 217.4417371 -160.17752117 207.64359307 C-160.18092055 201.79133662 -160.19579881 195.9396429 -160.23880196 190.08753204 C-160.27855384 184.58140492 -160.28495746 179.07623335 -160.26590157 173.57000542 C-160.2646354 171.55118589 -160.2753101 169.53231754 -160.29891586 167.51363564 C-160.48804364 150.35846232 -160.48804364 150.35846232 -156.73483276 145.88224792 C-155.32526854 144.65722623 -153.88885821 143.46289415 -152.43756104 142.28761292 C-150.9255763 140.80190789 -149.45593781 139.27972422 -147.98342198 137.75492668 C-146.24800566 135.96237775 -144.49096189 134.19380555 -142.72647095 132.42988586 C-142.09878689 131.80237175 -141.47110283 131.17485764 -140.82439804 130.52832794 C-140.17442982 129.87864296 -139.52446159 129.22895798 -138.85479736 128.55958557 C-137.48076364 127.1825558 -136.10693388 125.80532249 -134.73329163 124.42790222 C-131.02110591 120.70692385 -127.30572127 116.98915593 -123.5894568 113.27225161 C-121.26697512 110.94905745 -118.94520762 108.62515201 -116.62369347 106.30099106 C-108.5232394 98.19130365 -100.42022452 90.08418525 -92.3147583 81.97950745 C-84.75917374 74.42452515 -77.20920111 66.86396646 -69.66180211 59.3008076 C-63.17604263 52.80198791 -56.68644926 46.30701377 -50.19383639 39.81504095 C-46.31821184 35.93967156 -42.4441619 32.06275925 -38.57395363 28.18198013 C-34.93975369 24.53812331 -31.30081634 20.89906608 -27.65814018 17.26368332 C-26.321253 15.92784454 -24.98607838 14.59028937 -23.65273285 13.25091553 C-21.83520519 11.42570219 -20.01164917 9.60673393 -18.18641663 7.78923035 C-17.39395679 6.98905517 -17.39395679 6.98905517 -16.58548766 6.17271483 C-11.09877074 0.73735374 -7.61896174 -0.00995961 0 0 Z " fill="#000000" transform="translate(159.43756103515625,-0.2876129150390625)"/>
</svg>
