<?xml version="1.0" encoding="UTF-8"?>
<svg version="1.1" xmlns="http://www.w3.org/2000/svg" width="512" height="512">
<path d="M0 0 C6.82925826 6.31151665 13.28991393 15.33694697 14.17700195 24.91015625 C14.61791857 40.39669363 12.89352931 52.5384533 1.859375 64.27734375 C0.31955839 65.80930416 -1.23276011 67.32879368 -2.796875 68.8359375 C-4.71397044 70.71904189 -6.45789903 72.63469077 -8.1875 74.6875 C-11.59160082 78.6655944 -15.28127686 82.3199934 -19 86 C-24.3853894 91.31201023 -24.3853894 91.31201023 -29.4375 96.9375 C-32.89038615 101.02621173 -36.70077418 104.73734476 -40.5 108.5 C-46.17500033 114.08544607 -46.17500033 114.08544607 -51.5 120 C-55.5380156 124.79514352 -60.08125059 129.1045078 -64.53125 133.51171875 C-67.63005448 136.59207796 -70.68329772 139.65516604 -73.5 143 C-77.53735225 147.79435579 -82.07976083 152.10305756 -86.52905273 156.50952148 C-90.20992998 160.16846971 -93.7216616 163.87740091 -97.06640625 167.84765625 C-100.50957087 171.68035061 -104.22814967 175.2464681 -107.88916016 178.86962891 C-110.84893732 181.81048872 -113.74711363 184.74397644 -116.4375 187.9375 C-119.89038615 192.02621173 -123.70077418 195.73734476 -127.5 199.5 C-133.17500033 205.08544607 -133.17500033 205.08544607 -138.5 211 C-142.5380156 215.79514352 -147.08125059 220.1045078 -151.53125 224.51171875 C-154.63005448 227.59207796 -157.68329772 230.65516604 -160.5 234 C-164.5380156 238.79514352 -169.08125059 243.1045078 -173.53125 247.51171875 C-176.63005448 250.59207796 -179.68329772 253.65516604 -182.5 257 C-186.53735225 261.79435579 -191.07976083 266.10305756 -195.52905273 270.50952148 C-199.20465363 274.16322479 -202.71395828 277.86462756 -206.05078125 281.83203125 C-209.56824422 285.74423956 -213.35914443 289.39675863 -217.11547852 293.07836914 C-219.98996042 295.91173619 -222.71270682 298.65193317 -225 302 C-225.99 301.67 -226.98 301.34 -228 301 C-229.20774107 298.56957056 -230.24939171 296.20146754 -231.25 293.6875 C-241.94553565 268.1558544 -260.32038582 247.88183064 -286 237 C-290.6388129 235.24464208 -295.30187057 233.59086515 -300 232 C-295.61592 226.68825417 -290.93619472 221.97588653 -285.875 217.3125 C-280.63648326 212.44044757 -275.45967383 207.53264909 -270.4375 202.4375 C-267.44531498 199.40527418 -264.44181592 196.44115193 -261.1875 193.6875 C-257.06295972 190.18553184 -253.30429174 186.34134803 -249.5 182.5 C-245.19812787 178.15634691 -240.89692089 173.93951233 -236.21875 170 C-232.84987939 166.96327156 -229.69090341 163.72188306 -226.5 160.5 C-222.19812143 156.15635562 -217.89692101 151.93951243 -213.21875 148 C-209.84987939 144.96327156 -206.69090341 141.72188306 -203.5 138.5 C-199.19812143 134.15635562 -194.89692101 129.93951243 -190.21875 126 C-186.84987939 122.96327156 -183.69090341 119.72188306 -180.5 116.5 C-176.19812143 112.15635562 -171.89692101 107.93951243 -167.21875 104 C-163.84987939 100.96327156 -160.69090341 97.72188306 -157.5 94.5 C-153.19812143 90.15635562 -148.89692101 85.93951243 -144.21875 82 C-140.1451192 78.32799477 -136.34870011 74.36666828 -132.49047852 70.47094727 C-128.83153029 66.79007002 -125.12259909 63.2783384 -121.15234375 59.93359375 C-117.9764732 57.0804977 -115.00240448 54.03376938 -112 51 C-104.71889798 43.64283527 -104.71889798 43.64283527 -101.0625 40.5625 C-96.97378849 37.10961404 -93.26265302 33.29922802 -89.5 29.5 C-85.17543488 25.13339779 -80.85567776 20.88520901 -76.14453125 16.93359375 C-73.6461844 14.68098594 -71.31877163 12.29360129 -68.97021484 9.88647461 C-49.51316488 -10.00564303 -23.9186186 -19.34213201 0 0 Z " fill="#000000" transform="translate(498,44)"/>
<path d="M0 0 C15.60113351 13.57116146 26.36012042 32.92102663 28.3659668 53.70727539 C28.49840505 56.91536225 28.52980141 60.10187907 28.5 63.3125 C28.49387695 64.44486084 28.48775391 65.57722168 28.48144531 66.74389648 C28.25156887 79.14396216 25.88330856 90.50296374 20.0625 101.5625 C19.69382813 102.29597656 19.32515625 103.02945313 18.9453125 103.78515625 C15.91639961 109.5559282 12.2161792 114.55544436 8.0625 119.5625 C7.47855469 120.29339844 6.89460937 121.02429688 6.29296875 121.77734375 C-7.51260485 138.31496771 -28.41266941 148.96481893 -48.9375 154.5625 C-49.58525391 154.74361328 -50.23300781 154.92472656 -50.90039062 155.11132812 C-93.34288011 166.88040492 -142.01276117 162.93036829 -180.91503906 141.47167969 C-189.06427717 136.74754422 -196.17093706 131.12179885 -202.9375 124.5625 C-203.56011719 124.01335937 -204.18273437 123.46421875 -204.82421875 122.8984375 C-211.80423106 116.53015661 -217.59688335 107.95254565 -218.9375 98.5625 C-217.88961304 98.21638672 -217.88961304 98.21638672 -216.82055664 97.86328125 C-178.82299483 85.23175212 -154.55763685 70.35988897 -132.3515625 36.73046875 C-122.07457492 21.16744366 -111.72307841 6.65564508 -94.9375 -2.4375 C-93.88175781 -3.03046875 -92.82601562 -3.6234375 -91.73828125 -4.234375 C-62.74084311 -19.7084925 -26.63507025 -21.04678576 0 0 Z " fill="#000000" transform="translate(218.9375,317.4375)"/>
</svg>
