<?xml version="1.0" encoding="UTF-8"?>
<svg version="1.1" xmlns="http://www.w3.org/2000/svg" width="512" height="512">
<path d="M0 0 C7.92309742 4.85688325 15.29613522 10.63825767 22.74609375 16.1796875 C27.3701963 19.61648399 32.03284707 22.99659469 36.7109375 26.359375 C42.90778837 30.81915266 49.07070365 35.32197572 55.2109375 39.859375 C63.59031425 46.04962995 72.02201321 52.16411958 80.47705078 58.25048828 C84.97616919 61.49083695 89.46917869 64.73965202 93.96337891 67.98681641 C97.6988825 70.68535522 101.4357523 73.38195453 105.17578125 76.07421875 C113.69014431 82.20694179 122.16309952 88.39170289 130.60302734 94.62646484 C138.92596499 100.76857134 147.31525965 106.81728183 155.7109375 112.859375 C165.70947891 120.05499635 175.67879037 127.28552405 185.58105469 134.61328125 C189.57715436 137.56627532 193.58677974 140.49696343 197.62890625 143.38671875 C198.42941406 143.95970703 199.22992188 144.53269531 200.0546875 145.12304688 C201.5585601 146.19706256 203.06486679 147.26768276 204.57421875 148.33398438 C219.39967131 158.92557642 219.39967131 158.92557642 221.7109375 165.859375 C222.19051504 171.9747153 220.74019956 176.82875961 218.84375 182.546875 C218.53782928 183.49639038 218.23190857 184.44590576 217.91671753 185.42419434 C216.89955862 188.57251467 215.86780893 191.71584902 214.8359375 194.859375 C214.11113127 197.09282397 213.38718987 199.32655377 212.6640625 201.56054688 C210.36048063 208.6647979 208.03648768 215.76229115 205.7109375 222.859375 C204.95525386 225.16922184 204.19971821 227.47911709 203.44433594 229.7890625 C200.43938962 238.97625009 197.43239168 248.16275687 194.41748047 257.34667969 C189.52905717 272.24583609 184.71775822 287.16773479 179.9609375 302.109375 C172.62836887 325.13791945 165.10432331 348.102128 157.53051758 371.05224609 C156.60593997 373.85503036 155.68172908 376.65793526 154.7578125 379.4609375 C154.4223066 380.47861017 154.4223066 380.47861017 154.08002281 381.51684189 C151.3414371 389.8292142 148.64802315 398.15375981 146.0390625 406.5078125 C145.77958328 407.33351746 145.52010406 408.15922241 145.25276184 409.00994873 C144.13057633 412.58143689 143.02085723 416.15537653 141.94213867 419.74023438 C138.66747102 430.20880023 138.66747102 430.20880023 133.7109375 433.859375 C133.05962294 434.38488984 132.40830837 434.91040468 131.737257 435.45184422 C127.14283682 437.58869323 122.7629291 437.27580976 117.75466919 437.24705505 C116.07732942 437.25513336 116.07732942 437.25513336 114.36610401 437.26337487 C110.61130833 437.27770607 106.85686263 437.27053776 103.10205078 437.26342773 C100.41318644 437.26912862 97.72434741 437.27599092 95.03549194 437.28422546 C88.48519648 437.30142537 81.93499689 437.30225095 75.3846847 437.29701256 C70.06019692 437.29297152 64.73573749 437.29441364 59.41125107 437.29976082 C58.6535006 437.30050924 57.89575013 437.30125766 57.11503752 437.30202876 C55.5756673 437.30356024 54.03629709 437.30509859 52.49692689 437.30664373 C38.05921542 437.32037331 23.62155813 437.31492808 9.18384789 437.30345852 C-4.02227275 437.29352762 -17.22825325 437.30646348 -30.43435226 437.33039271 C-43.99583777 437.35478064 -57.557258 437.36439222 -71.118765 437.35773998 C-78.73191663 437.35424682 -86.3449605 437.35648608 -93.95809555 437.37399101 C-100.43967333 437.38870927 -106.92106748 437.38935357 -113.40264164 437.3719201 C-116.70891227 437.36340405 -120.01478712 437.3634407 -123.32105255 437.37657166 C-126.90728828 437.38972794 -130.49262993 437.37828009 -134.0788269 437.36058044 C-135.12114625 437.37018545 -136.16346559 437.37979046 -137.23737037 437.38968652 C-143.46067019 437.32641396 -147.22966319 436.57070842 -152.2890625 432.859375 C-156.63938031 426.93690778 -158.47859192 419.86848033 -160.7109375 412.93359375 C-161.13117099 411.64672295 -161.55206018 410.36006612 -161.97355652 409.0736084 C-163.10279037 405.62025401 -164.22227739 402.16381237 -165.33982468 398.70666122 C-166.28151715 395.79798786 -167.22913962 392.89126153 -168.17685986 389.98454762 C-174.24385926 371.37622518 -180.23081491 352.74230796 -186.16711426 334.09188843 C-192.09300453 315.47621869 -198.17812947 296.91487344 -204.2890625 278.359375 C-212.55811311 253.24942885 -220.75640911 228.11862024 -228.72567749 202.91146851 C-230.21272641 198.21073475 -231.7275738 193.52130129 -233.28173828 188.84228516 C-233.60775528 187.84940994 -233.93377228 186.85653473 -234.26966858 185.83357239 C-234.89138631 183.94187868 -235.52095438 182.05273935 -236.15989685 180.16679382 C-238.10171587 174.22032543 -239.31489306 169.07364407 -237.3515625 162.921875 C-231.67086357 154.4868978 -222.50347887 149.0196573 -214.28710938 143.26611328 C-210.70401834 140.74341404 -207.15329426 138.17594926 -203.6015625 135.609375 C-202.84689697 135.06450439 -202.09223145 134.51963379 -201.31469727 133.95825195 C-194.97963947 129.37622479 -188.68653657 124.73850762 -182.39794922 120.09301758 C-173.33800229 113.40697325 -164.19870138 106.83201481 -155.05957031 100.25488281 C-146.51853257 94.10608321 -138.00314486 87.92631503 -129.5390625 81.671875 C-123.02038171 76.85543284 -116.4645797 72.09914565 -109.859375 67.40234375 C-98.62390407 59.41091725 -87.48761822 51.28515105 -76.39794922 43.09301758 C-68.81466872 37.49672105 -61.17648104 31.97842758 -53.52734375 26.47265625 C-51.26840043 24.84448244 -49.01263589 23.21199875 -46.7578125 21.578125 C-43.02510793 18.87342951 -39.28646874 16.17712053 -35.54443359 13.48535156 C-34.00879062 12.37825239 -32.47534323 11.26810282 -30.94384766 10.15527344 C-28.64728771 8.4870401 -26.34391662 6.82862256 -24.0390625 5.171875 C-23.34804443 4.66648193 -22.65702637 4.16108887 -21.94506836 3.64038086 C-14.93374933 -1.3694296 -8.20518084 -4.08858841 0 0 Z " fill="#000000" transform="translate(264.2890625,38.140625)"/>
</svg>
