<?xml version="1.0" encoding="UTF-8"?>
<svg version="1.1" xmlns="http://www.w3.org/2000/svg" width="512" height="512">
<path d="M0 0 C0.57395508 0.41991211 1.14791016 0.83982422 1.73925781 1.27246094 C8.93222007 6.54675095 15.64896528 12.23233928 22.1484375 18.3359375 C24.82764019 20.83897344 27.55906463 23.26680606 30.3125 25.6875 C34.58579006 29.53346105 38.31497048 33.59780118 42 38 C42.79792969 38.89847656 43.59585937 39.79695313 44.41796875 40.72265625 C84.21877119 85.84097481 104 144.41541779 104 204 C-61.66 204 -227.32 204 -398 204 C-398 179.55330525 -398 179.55330525 -396.8125 171.5625 C-396.677229 170.61189697 -396.54195801 169.66129395 -396.40258789 168.68188477 C-389.92070033 125.30806002 -373.06889223 82.96872308 -345 49 C-344.57009766 48.47535156 -344.14019531 47.95070313 -343.69726562 47.41015625 C-334.55361515 36.27759495 -325.11875709 25.20520288 -314 16 C-313.0821875 15.19433594 -312.164375 14.38867188 -311.21875 13.55859375 C-272.73550812 -20.10585576 -223.77266261 -40.76444966 -173 -46 C-172.04867187 -46.11085937 -171.09734375 -46.22171875 -170.1171875 -46.3359375 C-110.78517328 -52.19002957 -47.91671501 -35.6521597 0 0 Z " fill="#000000" transform="translate(403,177)"/>
</svg>
