<?xml version="1.0" encoding="UTF-8"?>
<svg version="1.1" xmlns="http://www.w3.org/2000/svg" width="512" height="512">
<path d="M0 0 C8.258048 4.87618072 11.55041046 11.87694767 14.6484375 20.5859375 C15.03136963 21.63038025 15.41430176 22.674823 15.80883789 23.75091553 C17.06760134 27.19186816 18.3091521 30.63876922 19.55078125 34.0859375 C20.42574693 36.48776226 21.30198682 38.88912317 22.17944336 41.29003906 C23.5477835 45.03588935 24.91537272 48.7819923 26.27687073 52.53033447 C29.52659737 61.47519988 32.82159832 70.40240145 36.14453125 79.3203125 C36.60081406 80.54592896 37.05709686 81.77154541 37.52720642 83.03430176 C39.30197415 87.80070842 41.07720043 92.56694074 42.85549927 97.33203125 C44.08114178 100.61868616 45.30272556 103.90682368 46.5234375 107.1953125 C46.88195801 108.15354919 47.24047852 109.11178589 47.60986328 110.09906006 C47.94622803 111.0070636 48.28259277 111.91506714 48.62915039 112.85058594 C48.9561795 113.71776245 49.28320862 114.58493896 49.62014771 115.47839355 C50.48828125 118.0859375 50.48828125 118.0859375 51.04855347 120.87805176 C51.60800279 123.56430689 52.13003039 125.69843724 53.48828125 128.0859375 C56.65848826 129.87444013 59.9436094 130.39206437 63.48828125 131.0859375 C65.0917067 131.61111996 66.68460201 132.16966123 68.26464844 132.76147461 C69.07258347 133.05780289 69.88051849 133.35413116 70.7129364 133.65943909 C71.56176895 133.974207 72.4106015 134.28897491 73.28515625 134.61328125 C74.21282303 134.95451523 75.14048981 135.29574921 76.0962677 135.64732361 C79.14474737 136.76962464 82.1915732 137.89633677 85.23828125 139.0234375 C87.38266806 139.81478679 89.5271192 140.60596178 91.67163086 141.39697266 C96.22100113 143.07562837 100.76961094 144.75632729 105.31787109 146.43798828 C110.8145971 148.46936855 116.31393205 150.49354812 121.81479836 152.51368809 C127.36658909 154.55257336 132.91667656 156.59605974 138.46618652 158.6411438 C140.84381416 159.51655042 143.22198334 160.39048768 145.60070801 161.26290894 C148.94116702 162.48860061 152.27940443 163.7201681 155.6171875 164.953125 C156.60161331 165.31284897 157.58603912 165.67257294 158.60029602 166.04319763 C174.08902605 171.78630662 174.08902605 171.78630662 177.86328125 176.5859375 C178.32476562 177.153125 178.78625 177.7203125 179.26171875 178.3046875 C183.52778158 184.49998893 183.27155146 190.73144247 182.48828125 198.0859375 C180.30766449 204.53650616 175.22574369 208.74522482 169.48828125 212.0859375 C164.33179818 214.40778322 158.95499996 216.20637383 153.61859131 218.06411743 C148.76324499 219.75461 143.92414684 221.49080694 139.08203125 223.21875 C138.02805145 223.59334854 136.97407166 223.96794708 135.88815308 224.35389709 C126.94504613 227.54056632 118.04078296 230.82604422 109.14453125 234.140625 C108.10234877 234.52873824 108.10234877 234.52873824 107.03911209 234.92469215 C100.76901885 237.26010959 94.50035879 239.59935732 88.23309326 241.94235229 C84.93648217 243.1746127 81.63874394 244.40381416 78.34028625 245.63112259 C76.54265767 246.30104287 74.74634066 246.97447931 72.95007324 247.64804077 C71.85005981 248.05720734 70.75004639 248.4663739 69.61669922 248.88793945 C68.57995056 249.27930084 67.5432019 249.67066223 66.47503662 250.07388306 C63.61366932 251.04345007 60.81667779 251.64326957 57.86376953 252.25854492 C54.92926312 253.10780231 53.83772362 253.46254574 52.32853699 256.15487671 C51.54658706 258.78218642 51.01252444 261.39630651 50.48828125 264.0859375 C49.97344651 265.66280472 49.42564024 267.22931146 48.84448242 268.78295898 C48.55451385 269.57495697 48.26454529 270.36695496 47.96578979 271.18295288 C47.65739166 272.01589874 47.34899353 272.8488446 47.03125 273.70703125 C46.69562042 274.62102692 46.35999084 275.53502258 46.01419067 276.47671509 C44.9050414 279.4936503 43.79104913 282.50875908 42.67578125 285.5234375 C42.09744034 287.08757889 42.09744034 287.08757889 41.50741577 288.68331909 C39.85129643 293.16153847 38.19508572 297.63972133 36.53614807 302.11689758 C33.95655616 309.08610397 31.40086245 316.0632836 28.86839962 323.04972363 C26.91308763 328.44307077 24.94556212 333.83186142 22.96991825 339.21779346 C21.76829025 342.49553429 20.57305552 345.77530403 19.39266968 349.0607605 C18.06520872 352.75480475 16.70938398 356.43809481 15.3515625 360.12109375 C14.96356476 361.21491364 14.57556702 362.30873352 14.17581177 363.43569946 C11.24708923 371.27855576 7.58936919 377.40158903 0.48046875 382.0546875 C-5.64962162 384.16740794 -12.88591128 384.4054382 -19.0234375 382.171875 C-27.38611647 377.23391218 -30.63797142 370.11792668 -33.77734375 361.3046875 C-34.36384201 359.70562057 -34.36384201 359.70562057 -34.96218872 358.07424927 C-36.24011483 354.58219172 -37.5008476 351.08418502 -38.76171875 347.5859375 C-39.64670374 345.15888794 -40.53294815 342.73229727 -41.42041016 340.30615234 C-43.23604814 335.33859933 -45.04564426 330.36891003 -46.85058594 325.39746094 C-50.46175747 315.46092004 -54.13242732 305.54652039 -57.80505371 295.63256836 C-58.85642073 292.79277395 -59.90569356 289.95221613 -60.95410156 287.11132812 C-61.44541565 285.78044159 -61.44541565 285.78044159 -61.94665527 284.42266846 C-62.57784102 282.71275724 -63.2087906 281.00275883 -63.83947754 279.29266357 C-65.31557249 275.29642351 -66.80360741 271.305376 -68.31738281 267.32324219 C-68.59981842 266.57851654 -68.88225403 265.83379089 -69.17324829 265.0664978 C-69.70153533 263.67639889 -70.23259481 262.28734918 -70.76693726 260.89956665 C-72.51171875 256.30705603 -72.51171875 256.30705603 -72.51171875 254.0859375 C-73.09840836 253.91831909 -73.68509796 253.75070068 -74.28956604 253.57800293 C-81.02317913 251.61130126 -87.58915609 249.30760402 -94.1640625 246.8671875 C-95.27786285 246.45663116 -96.39166321 246.04607483 -97.53921509 245.62307739 C-101.17721623 244.28093972 -104.81342818 242.93405132 -108.44921875 241.5859375 C-109.7068494 241.11982865 -110.96448903 240.653744 -112.22213745 240.18768311 C-113.16527565 239.83814166 -113.16527565 239.83814166 -114.12746716 239.48153877 C-115.40950107 239.00640066 -116.6915401 238.53127639 -117.97358418 238.0561657 C-118.61347373 237.81902414 -119.25336329 237.58188259 -119.91264343 237.33755493 C-120.55531347 237.09938679 -121.19798351 236.86121864 -121.8601284 236.61583328 C-123.1678529 236.13104906 -124.4755015 235.64606005 -125.78307533 235.1608696 C-134.08330929 232.08105962 -142.39358547 229.03232089 -150.72026062 226.02459717 C-155.39833687 224.33322381 -160.07143727 222.62836752 -164.743927 220.92163086 C-166.94825896 220.12026862 -169.15484831 219.32508645 -171.36373901 218.53637695 C-174.44143563 217.43645544 -177.51026811 216.31452328 -180.578125 215.1875 C-181.918181 214.71825607 -181.918181 214.71825607 -183.28530884 214.23953247 C-190.51765198 211.54131181 -196.21192489 207.59951146 -200.48046875 201.078125 C-202.59318919 194.94803463 -202.83121945 187.71174497 -200.59765625 181.57421875 C-196.12894553 174.00624092 -189.79701002 170.40664025 -181.76171875 167.58203125 C-180.46235886 167.10792313 -180.46235886 167.10792313 -179.13674927 166.62423706 C-176.26569695 165.57934071 -173.38879058 164.55163025 -170.51171875 163.5234375 C-168.48501972 162.78871643 -166.45882492 162.05260314 -164.43310547 161.31518555 C-160.09603553 159.73714604 -155.75704459 158.16454324 -151.41699219 156.59472656 C-140.64716394 152.69097628 -129.91081338 148.69642788 -119.17138672 144.70999146 C-115.71120181 143.42607476 -112.25027569 142.14417885 -108.7890625 140.86303711 C-107.15309113 140.25731621 -107.15309113 140.25731621 -105.48406982 139.63935852 C-103.37351678 138.85795458 -101.26288296 138.07676874 -99.15216064 137.29582214 C-94.58350229 135.60354698 -90.01821422 133.90380085 -85.46386719 132.17333984 C-84.71136688 131.88798874 -83.95886658 131.60263763 -83.18356323 131.30863953 C-81.81989792 130.79030911 -80.45727966 130.26921133 -79.09597778 129.7447052 C-74.7321364 128.0859375 -74.7321364 128.0859375 -72.51171875 128.0859375 C-72.34410034 127.49924789 -72.17648193 126.91255829 -72.00378418 126.30809021 C-70.03708251 119.57447712 -67.73338527 113.00850016 -65.29296875 106.43359375 C-64.88241241 105.3197934 -64.47185608 104.20599304 -64.04885864 103.05844116 C-62.70672097 99.42044002 -61.35983257 95.78422807 -60.01171875 92.1484375 C-59.5456099 90.89080685 -59.07952525 89.63316722 -58.61346436 88.3755188 C-58.26392291 87.4323806 -58.26392291 87.4323806 -57.90732002 86.47018909 C-57.43218191 85.18815518 -56.95705764 83.90611615 -56.48194695 82.62407207 C-56.24480539 81.98418252 -56.00766384 81.34429296 -55.76333618 80.68501282 C-55.52516804 80.04234278 -55.28699989 79.39967274 -55.04161453 78.73752785 C-54.55683031 77.42980335 -54.0718413 76.12215475 -53.58665085 74.81458092 C-50.50684087 66.51434696 -47.45810214 58.20407078 -44.45037842 49.87739563 C-42.75900506 45.19931938 -41.05414877 40.52621898 -39.34741211 35.85372925 C-38.54604987 33.64939729 -37.7508677 31.44280794 -36.9621582 29.23391724 C-35.86223669 26.15622062 -34.74030453 23.08738814 -33.61328125 20.01953125 C-33.14403732 18.67947525 -33.14403732 18.67947525 -32.66531372 17.31234741 C-29.96709306 10.08000427 -26.02529271 4.38573136 -19.50390625 0.1171875 C-13.37381588 -1.99553294 -6.13752622 -2.2335632 0 0 Z M-10.51171875 85.0859375 C-10.70248993 85.6044931 -10.89326111 86.12304871 -11.08981323 86.65731812 C-12.01922279 89.18310989 -12.94900241 91.70876516 -13.87890625 94.234375 C-14.40450386 95.66191856 -14.40450386 95.66191856 -14.9407196 97.11830139 C-18.034569 105.51595346 -21.14783908 113.9063364 -24.264328 122.29560852 C-26.17209168 127.43948216 -28.06193844 132.58822192 -29.89959717 137.75756836 C-30.94277984 140.68497365 -32.01143916 143.60310021 -33.07421875 146.5234375 C-33.41759277 147.52487793 -33.7609668 148.52631836 -34.11474609 149.55810547 C-36.89166881 157.06676703 -40.95746405 161.81519885 -48.20387268 165.42823792 C-51.28996143 166.68955779 -54.39728443 167.82934529 -57.54296875 168.93359375 C-58.69228882 169.35337997 -59.84160889 169.7731662 -61.02575684 170.20567322 C-64.6818682 171.53686155 -68.34630104 172.84312166 -72.01171875 174.1484375 C-74.44201079 175.02762757 -76.87170468 175.90847293 -79.30078125 176.79101562 C-83.95025366 178.47831268 -88.60263636 180.15712075 -93.2578125 181.82861328 C-100.70372919 184.50750255 -108.11525164 187.27376877 -115.51171875 190.0859375 C-115.51171875 190.7459375 -115.51171875 191.4059375 -115.51171875 192.0859375 C-114.99316315 192.27670868 -114.47460754 192.46747986 -113.94033813 192.66403198 C-111.41454636 193.59344154 -108.88889109 194.52322116 -106.36328125 195.453125 C-105.41158554 195.80352341 -104.45988983 196.15392181 -103.47935486 196.51493835 C-95.08170279 199.60878775 -86.69131985 202.72205783 -78.30204773 205.83854675 C-73.15817409 207.74631043 -68.00943433 209.63615719 -62.84008789 211.47381592 C-59.9126826 212.51699859 -56.99455604 213.58565791 -54.07421875 214.6484375 C-53.07277832 214.99181152 -52.07133789 215.33518555 -51.03955078 215.68896484 C-43.53088922 218.46588756 -38.7824574 222.5316828 -35.16941833 229.77809143 C-33.90809846 232.86418018 -32.76831096 235.97150318 -31.6640625 239.1171875 C-31.24427628 240.26650757 -30.82449005 241.41582764 -30.39198303 242.59997559 C-29.0607947 246.25608695 -27.75453459 249.92051979 -26.44921875 253.5859375 C-25.57002868 256.01622954 -24.68918332 258.44592343 -23.80664062 260.875 C-22.11934357 265.52447241 -20.4405355 270.17685511 -18.76904297 274.83203125 C-16.0901537 282.27794794 -13.32388748 289.68947039 -10.51171875 297.0859375 C-9.85171875 297.0859375 -9.19171875 297.0859375 -8.51171875 297.0859375 C-8.32094757 296.5673819 -8.13017639 296.04882629 -7.93362427 295.51455688 C-7.00421471 292.98876511 -6.07443509 290.46310984 -5.14453125 287.9375 C-4.79413284 286.98580429 -4.44373444 286.03410858 -4.0827179 285.05357361 C-0.9888685 276.65592154 2.12440158 268.2655386 5.2408905 259.87626648 C7.14865418 254.73239284 9.03850094 249.58365308 10.87615967 244.41430664 C11.91934234 241.48690135 12.98800166 238.56877479 14.05078125 235.6484375 C14.39415527 234.64699707 14.7375293 233.64555664 15.09130859 232.61376953 C17.79398162 225.30587545 21.81118439 220.50873017 28.81495667 216.88069153 C31.34778455 215.82802456 33.89593925 214.89596647 36.48828125 214 C37.43444305 213.65640945 38.38060486 213.31281891 39.35543823 212.95881653 C42.39399062 211.8594343 45.44073638 210.78510756 48.48828125 209.7109375 C50.5724394 208.96155553 52.65593557 208.21032999 54.73876953 207.45727539 C58.81173254 205.98641328 62.88744152 204.5236458 66.96582031 203.06787109 C73.79285487 200.6256858 80.58214359 198.09005933 87.36328125 195.5234375 C89.19395584 194.83449037 91.02467737 194.14566796 92.85546875 193.45703125 C94.05429687 193.00457031 95.253125 192.55210937 96.48828125 192.0859375 C96.48828125 191.4259375 96.48828125 190.7659375 96.48828125 190.0859375 C95.96972565 189.89516632 95.45117004 189.70439514 94.91690063 189.50784302 C92.39110886 188.57843346 89.86545359 187.64865384 87.33984375 186.71875 C86.38814804 186.36835159 85.43645233 186.01795319 84.45591736 185.65693665 C76.05826529 182.56308725 67.66788235 179.44981717 59.27861023 176.33332825 C54.13473659 174.42556457 48.98599683 172.53571781 43.81665039 170.69805908 C40.8892451 169.65487641 37.97111854 168.58621709 35.05078125 167.5234375 C34.04934082 167.18006348 33.04790039 166.83668945 32.01611328 166.48291016 C24.7082192 163.78023713 19.91107392 159.76303436 16.28303528 152.75926208 C15.23036831 150.2264342 14.29831022 147.6782795 13.40234375 145.0859375 C13.0587532 144.1397757 12.71516266 143.19361389 12.36116028 142.21878052 C11.26177805 139.18022813 10.18745131 136.13348237 9.11328125 133.0859375 C8.36389928 131.00177935 7.61267374 128.91828318 6.85961914 126.83544922 C5.38875703 122.76248621 3.92598955 118.68677723 2.47021484 114.60839844 C0.02802955 107.78136388 -2.50759692 100.99207516 -5.07421875 94.2109375 C-5.76316588 92.38026291 -6.45198829 90.54954138 -7.140625 88.71875 C-7.59308594 87.51992187 -8.04554688 86.32109375 -8.51171875 85.0859375 C-9.17171875 85.0859375 -9.83171875 85.0859375 -10.51171875 85.0859375 Z " fill="#000000" transform="translate(265.51171875,64.9140625)"/>
</svg>
