<?xml version="1.0" encoding="UTF-8"?>
<svg version="1.1" xmlns="http://www.w3.org/2000/svg" width="512" height="512">
<path d="M0 0 C0.66 0 1.32 0 2 0 C2.43642822 0.82274414 2.87285645 1.64548828 3.32250977 2.49316406 C11.02389201 17.00858444 18.73113149 31.52055434 26.5 46 C31.85827838 55.98688847 37.18759734 65.98865961 42.5 76 C50.2944656 90.68762322 58.13828517 105.3482418 66 120 C74.2256912 135.33009542 82.42766189 150.67202231 90.5824585 166.03991699 C96.13881858 176.51020362 101.72420488 186.96441326 107.3293457 197.40869141 C110.66437373 203.62719797 113.98741105 209.85172607 117.29296875 216.0859375 C117.65506943 216.76884354 118.0171701 217.45174957 118.39024353 218.15534973 C119.85364043 220.91559404 121.31692262 223.67589915 122.78012085 226.43624878 C127.70541567 235.72423681 132.69461323 244.97349951 137.75463867 254.18896484 C141.77689764 261.53696378 145.64693641 268.95957075 149.5012207 276.39672852 C152.92018461 282.97679995 156.42969656 289.50093201 160 296 C164.09431743 303.4529372 168.08732583 310.95012937 172 318.5 C175.79367585 325.81742414 179.65550331 333.08895098 183.625 340.3125 C188.78152911 349.70102248 193.81042695 359.15364778 198.8125 368.625 C204.36668571 379.14088436 209.93740587 389.64683913 215.5625 400.125 C220.53761302 409.39313798 225.489481 418.67307588 230.42010498 427.9649353 C236.08205394 438.6348914 241.74893785 449.30219717 247.44433594 459.9543457 C248.10063678 461.1822478 248.75640826 462.41043301 249.41162109 463.63891602 C250.31326745 465.32909479 251.21712658 467.01809259 252.12109375 468.70703125 C252.6308374 469.6606958 253.14058105 470.61436035 253.66577148 471.59692383 C255.03758862 474.14421292 255.03758862 474.14421292 257 477 C257 477.99 257 478.98 257 480 C88.04 480 -80.92 480 -255 480 C-254.08908934 476.35635737 -252.98020948 473.77863134 -251.26171875 470.4765625 C-250.4116626 468.8383252 -250.4116626 468.8383252 -249.54443359 467.16699219 C-248.93164551 465.99813477 -248.31885742 464.82927734 -247.6875 463.625 C-247.05017092 462.4027329 -246.41296531 461.18040142 -245.77587891 459.95800781 C-241.41432572 451.60907852 -236.94129719 443.32388527 -232.40112305 435.07080078 C-228.84442091 428.59237436 -225.40010078 422.06183033 -222 415.5 C-217.60938568 407.02738598 -213.09455295 398.63305341 -208.5 390.26953125 C-204.91393386 383.7230928 -201.43445151 377.12709529 -198 370.5 C-194.20632415 363.18257586 -190.34449669 355.91104902 -186.375 348.6875 C-181.21847089 339.29897752 -176.18957305 329.84635222 -171.1875 320.375 C-165.0338026 308.72404457 -158.84851666 297.09155329 -152.61621094 285.48242188 C-147.86463192 276.6266317 -143.14683531 267.75330483 -138.4375 258.875 C-132.7657273 248.18298392 -127.0556832 237.51277608 -121.30615234 226.86230469 C-116.3221955 217.62036139 -111.39459331 208.34907183 -106.47412109 199.07324219 C-100.89808006 188.56214194 -95.29233135 178.06757251 -89.66650391 167.58300781 C-84.89943289 158.69303056 -80.16459219 149.78627921 -75.4375 140.875 C-69.76565904 130.18301974 -64.05568356 119.51277675 -58.30615234 108.86230469 C-53.3221955 99.62036139 -48.39459331 90.34907183 -43.47412109 81.07324219 C-37.9054503 70.57603518 -32.30790135 60.09491054 -26.68847656 49.62475586 C-23.25323809 43.21960091 -19.83165384 36.8075273 -16.42578125 30.38671875 C-16.04062347 29.66074493 -15.6554657 28.93477112 -15.25863647 28.1867981 C-13.38166415 24.6482146 -11.50620763 21.10883796 -9.6328125 17.56835938 C-8.94924649 16.27863113 -8.26565403 14.9889169 -7.58203125 13.69921875 C-6.98624268 12.57346436 -6.3904541 11.44770996 -5.77661133 10.2878418 C-3.90513453 6.82443957 -1.96588392 3.4105046 0 0 Z " fill="#000000" transform="translate(255,16)"/>
</svg>
