<?xml version="1.0" encoding="UTF-8"?>
<svg version="1.1" xmlns="http://www.w3.org/2000/svg" width="512" height="512">
<path d="M0 0 C7.56973011 3.83438665 13.66319547 11.27576876 19.11727333 17.62067604 C22.99669129 22.05854463 27.09913695 26.23291112 31.27597046 30.38949585 C32.08162213 31.19529638 32.8872738 32.00109691 33.71733916 32.83131564 C36.39952364 35.51280932 39.08525792 38.19071835 41.77099609 40.86865234 C43.70192176 42.7970913 45.63207846 44.72629921 47.56225586 46.65548706 C51.70924882 50.79960314 55.8580102 54.94194181 60.00794601 59.08311081 C66.00953744 65.07211654 72.00786041 71.06438742 78.00530954 77.05754097 C87.73957426 86.78475059 97.47570657 96.51008843 107.21337891 106.23388672 C108.08628842 107.10555451 108.08628842 107.10555451 108.97683246 107.99483176 C113.10950659 112.12160296 117.24224714 116.24830765 121.375 120.375 C126.10633138 125.09939772 130.83762842 129.82382982 135.56884766 134.54833984 C136.44341765 135.42166765 136.44341765 135.42166765 137.33565573 136.31263845 C147.04558617 146.00889912 156.753565 155.70711147 166.46014464 165.40672648 C172.44623984 171.38833553 178.4341109 177.3681564 184.42426439 183.34570141 C188.52193079 187.43496334 192.61784707 191.52597255 196.71237008 195.6183819 C199.07677382 197.98143658 201.44227863 200.3433617 203.80942154 202.70367432 C206.37054728 205.25763919 208.92862306 207.81461961 211.4859314 210.37240601 C212.24086958 211.12374923 212.99580777 211.87509246 213.77362287 212.64920366 C214.45404256 213.3309977 215.13446225 214.01279174 215.83550072 214.7152462 C216.42672797 215.30555166 217.01795521 215.89585711 217.62709844 216.50405061 C220.34719059 219.46793404 220.21961906 222.09881576 220.1484375 226.03515625 C219.95893766 228.54353571 219.55333994 230.00284865 218 232 C213.11596874 236.16408676 207.48168855 235.39982323 201.41674805 235.34057617 C199.66001015 235.34123329 199.66001015 235.34123329 197.86778259 235.34190369 C193.99892474 235.33981464 190.13050086 235.31647717 186.26171875 235.29296875 C183.57842779 235.28737321 180.89516084 235.28295534 178.21186829 235.28010559 C171.87250196 235.27078982 165.53329126 235.24618249 159.19399339 235.21605712 C151.97517343 235.18249846 144.75634594 235.16602344 137.53746736 235.15097082 C122.6915608 235.11963243 107.84579068 235.06688113 93 235 C93.00170874 235.84720232 93.00170874 235.84720232 93.003452 236.71151984 C93.07057494 270.18048693 93.12205396 303.64943716 93.15319599 337.11845646 C93.15694814 341.13642551 93.16083111 345.15439443 93.16479492 349.17236328 C93.16558185 349.97227418 93.16636878 350.77218507 93.16717956 351.59633569 C93.18023624 364.55122251 93.20389153 377.50606943 93.23145839 390.46093257 C93.2595053 403.7521649 93.27617475 417.04337633 93.28226548 430.33463705 C93.28638341 438.53716698 93.29939319 446.73958413 93.3237494 454.94207935 C93.33959777 460.56556405 93.3444024 466.18899037 93.34050413 471.81249578 C93.33858116 475.05780438 93.34318095 478.30287397 93.35761642 481.54815674 C93.37250375 485.06698164 93.36896691 488.58532076 93.36076355 492.10415649 C93.36950207 493.12945359 93.3782406 494.15475068 93.38724393 495.21111739 C93.34728708 501.53593452 92.76769892 506.04394195 88.26755428 510.85034943 C85.02045456 512.49662978 82.35227918 512.38412451 78.71913147 512.39440918 C77.98420217 512.40050028 77.24927288 512.40659139 76.492073 512.41286707 C74.02849398 512.42952132 71.56543045 512.42471794 69.10180664 512.41992188 C67.33594729 512.42726079 65.57009274 512.4358465 63.804245 512.44558716 C59.0067361 512.46783002 54.20939882 512.47073248 49.41184545 512.46883965 C45.40823666 512.46872008 41.40466441 512.47727855 37.40106577 512.48561716 C27.95688696 512.50486102 18.51279656 512.50773139 9.06860352 512.50097656 C-0.67791495 512.49433387 -10.42405515 512.51720707 -20.17049688 512.55429029 C-28.53578913 512.58496497 -36.90095955 512.59634978 -45.26630694 512.59245348 C-50.26376868 512.59038376 -55.26093609 512.59589961 -60.25834465 512.62034607 C-64.95755934 512.64257397 -69.65615803 512.64076852 -74.35537529 512.62041855 C-76.0803322 512.61700153 -77.80533025 512.62212736 -79.53023148 512.63640213 C-81.8849253 512.6545448 -84.23751819 512.64188566 -86.59214783 512.62145996 C-87.90972548 512.62217247 -89.22730314 512.62288498 -90.5848074 512.62361908 C-94.85197497 511.84442815 -96.30501262 510.31966398 -99 507 C-100.18882841 504.62234318 -100.12427729 503.19038988 -100.12304783 500.53721428 C-100.12503888 499.59271538 -100.12702993 498.64821647 -100.12908131 497.67509639 C-100.12616847 496.63036604 -100.12325563 495.58563568 -100.12025452 494.50924683 C-100.12110894 493.40497884 -100.12196337 492.30071085 -100.12284368 491.1629802 C-100.12449961 487.43790163 -100.11897525 483.71286743 -100.11352539 479.98779297 C-100.11324352 477.32743223 -100.11335715 474.66707427 -100.1139679 472.00671387 C-100.11449302 466.26635142 -100.11134739 460.52600031 -100.10573006 454.78564072 C-100.09761354 446.4859778 -100.09499968 438.18632037 -100.09374207 429.88665392 C-100.09155179 416.42199143 -100.08489234 402.95733499 -100.07543945 389.49267578 C-100.06626472 376.41064484 -100.05918418 363.32861554 -100.05493164 350.24658203 C-100.05466892 349.44061867 -100.05440619 348.63465531 -100.05413551 347.80426882 C-100.0528305 343.76111086 -100.05156679 339.71795289 -100.05032361 335.67479491 C-100.03995174 302.11652556 -100.02233407 268.55826352 -100 235 C-100.61899264 235.00276538 -101.23798529 235.00553076 -101.87573528 235.00837994 C-116.94055635 235.07464694 -132.00533267 235.12428402 -147.07026196 235.15543652 C-154.3555697 235.17090225 -161.64078012 235.19198607 -168.92602539 235.22631836 C-175.27620758 235.25622982 -181.62631928 235.27557714 -187.97656995 235.28226548 C-191.33868308 235.28617482 -194.70059457 235.29535592 -198.06264305 235.31719017 C-201.81686821 235.33891567 -205.57067343 235.34196889 -209.32495117 235.34057617 C-210.43841415 235.351362 -211.55187714 235.36214783 -212.69908142 235.3732605 C-213.72406738 235.36913651 -214.74905334 235.36501251 -215.80509949 235.36076355 C-216.69278613 235.36352893 -217.58047277 235.36629431 -218.49505901 235.36914349 C-222.19500716 234.82389641 -225.00817434 233.27520442 -227.3125 230.3125 C-228.3775789 226.72996187 -228.83576843 223.63726419 -228 220 C-226.10780217 216.90015373 -223.59286881 214.52326159 -221 212 C-220.03510978 211.03780878 -219.07165796 210.07417373 -218.109375 209.109375 C-216.58984618 207.58602106 -215.06805066 206.06642503 -213.52832031 204.56347656 C-210.82696482 201.91251278 -208.27553388 199.19322605 -205.81355762 196.31758785 C-202.01955969 191.96415625 -198.00895494 187.86932947 -193.920578 183.79359436 C-192.74378549 182.61446186 -192.74378549 182.61446186 -191.54321939 181.4115085 C-188.93246297 178.79678598 -186.31817391 176.18562552 -183.70385742 173.57446289 C-181.824113 171.69336255 -179.9445641 169.81206865 -178.06524658 167.93054199 C-173.50294538 163.3638091 -168.93796321 158.79976543 -164.37199309 154.23670114 C-160.66276745 150.52973812 -156.95452416 146.82179505 -153.24697304 143.11315727 C-152.71840492 142.58443592 -152.18983679 142.05571456 -151.64525146 141.51097135 C-150.57140443 140.43680458 -149.49755963 139.36263558 -148.42371706 138.28846436 C-138.37167954 128.23358011 -128.31658735 118.18175509 -118.26043687 108.13098454 C-109.62801987 99.50304264 -100.99823896 90.87247137 -92.37036133 82.23999023 C-82.34510869 72.209391 -72.31824241 62.1804094 -62.28877908 52.15402025 C-61.2205 51.08605972 -60.15222301 50.0180971 -59.08394814 48.95013237 C-58.55834941 48.42468792 -58.03275069 47.89924347 -57.49122473 47.35787647 C-53.78320085 43.6507169 -50.07634041 39.94239642 -46.36992455 36.23362923 C-41.85922101 31.72012691 -37.34675192 27.20839886 -32.83198025 22.69896568 C-30.52769403 20.39731419 -28.22449595 18.09459217 -25.92290688 15.79024315 C-23.43240123 13.29702536 -20.93886902 10.80687566 -18.44450378 8.31752014 C-17.71193318 7.58271882 -16.97936258 6.84791749 -16.22459286 6.09084946 C-15.5595991 5.42846345 -14.89460534 4.76607743 -14.20946026 4.08361912 C-13.63380154 3.50812275 -13.05814283 2.93262639 -12.46503991 2.33969074 C-8.88812419 -0.93118321 -4.58057614 -0.75730232 0 0 Z " fill="#000000" transform="translate(260,0)"/>
</svg>
